<svg version="1.1" id="cambios" xmlns="http://www.w3.org/2000/svg"
                    xmlns:xlink="http://www.w3.org/1999/xlink" x="0px" y="0px" viewBox="0 0 45 45"
                    enable-background="new 0 0 45 45" xml:space="preserve">
                    <path fill="#231F20"
                        d="M35.735,18.963c0.071,0.27,0.317,0.458,0.598,0.458c0.052,0,0.104-0.007,0.155-0.02 c0.329-0.087,0.525-0.425,0.438-0.753c-1.66-6.3-7.413-10.699-13.99-10.699c-6.23,0-11.737,3.928-13.705,9.775l-0.057,0.168 l-1.637-4.092c-0.083-0.254-0.326-0.429-0.591-0.429c-0.064,0-0.127,0.01-0.188,0.03c-0.323,0.106-0.5,0.455-0.395,0.778 c0.006,0.025,0.018,0.048,0.03,0.073l2.181,5.468c0.063,0.16,0.189,0.286,0.345,0.345c0.074,0.03,0.155,0.045,0.233,0.045 c0.09,0,0.176-0.019,0.254-0.057l5.334-2.424c0.148-0.071,0.26-0.197,0.315-0.353c0.055-0.156,0.045-0.325-0.026-0.474 c-0.101-0.212-0.317-0.349-0.55-0.349c-0.084,0-0.167,0.018-0.245,0.053l-3.872,1.763l0.047-0.143 c1.788-5.349,6.821-8.942,12.524-8.942C28.956,9.184,34.219,13.206,35.735,18.963z">
                    </path>
                    <path fill="#231F20"
                        d="M36.172,26.555l1.637,4.092c0.09,0.246,0.323,0.41,0.581,0.41c0.071,0,0.142-0.013,0.21-0.037 c0.32-0.118,0.487-0.473,0.37-0.791c-0.004-0.009-0.013-0.025-0.016-0.048l-2.175-5.454c-0.064-0.159-0.19-0.285-0.346-0.346 c-0.152-0.061-0.335-0.055-0.489,0.013l-5.332,2.424c-0.154,0.063-0.272,0.183-0.336,0.336c-0.063,0.153-0.063,0.321,0,0.474 c0.096,0.231,0.319,0.381,0.572,0.381c0.082,0,0.161-0.016,0.236-0.047l0.038-0.02l3.874-1.763l-0.048,0.143 c-1.802,5.349-6.84,8.942-12.539,8.942c-6.019,0-11.282-4.021-12.798-9.779c-0.072-0.271-0.317-0.459-0.598-0.459 c-0.052,0-0.104,0.007-0.156,0.021c-0.328,0.087-0.525,0.425-0.438,0.753c1.651,6.3,7.404,10.699,13.99,10.699 c6.223,0,11.73-3.928,13.704-9.775L36.172,26.555z">
                    </path>
                </svg>