<svg version="1.1" id="cuotas" xmlns:x="&amp;ns_extend;" xmlns:i="&amp;ns_ai;"
                    xmlns:graph="&amp;ns_graphs;" xmlns="http://www.w3.org/2000/svg"
                    xmlns:xlink="http://www.w3.org/1999/xlink" x="0px" y="0px" viewBox="0 0 45 45"
                    style="enable-background:new 0 0 45 45;" xml:space="preserve">
                    <g>
                        <path
                            d="M9,25.1c-0.7-0.3-1.3-0.7-1.4-1.4c-0.1-0.3-0.1-0.6-0.1-0.9c0-4.3,0-8.6,0-12.9c0-0.4,0-0.8,0.2-1.1c0.3-0.9,1-1.2,1.9-1.3 c0.9,0,1.8,0,2.7,0c4.6,0,9.1,0,13.7,0c2.2,0,4.4,0,6.6,0c1,0,1.8,0.6,2,1.5c0,0.2,0.1,0.3,0.1,0.5c0,2.7,0,5.4,0,8.1 c0,0.5-0.3,0.7-0.7,0.5c-0.1,0-0.1-0.1-0.1-0.2c0-0.6,0-1.2,0-1.8c0-0.4,0-0.7,0-1.1c0-0.4-0.2-0.6-0.5-0.6c-0.5,0-1,0-1.5,0 c-4.3,0-8.5,0-12.8,0c-3.3,0-6.6,0-9.9,0c-0.2,0-0.4,0-0.6,0c-0.1,0-0.2,0.1-0.2,0.2c0,0.7,0,1.4,0,2.1c0,1.4,0,2.8,0,4.2 c0,0.7,0,1.3,0,2c0,0.4,0.1,0.8,0.3,1.3C8.8,24.5,8.9,24.8,9,25.1z M33.8,12.4c0-1,0-2-0.1-2.9c0-0.7-0.4-1-1.1-1.1 c-0.2,0-0.4-0.1-0.6-0.1c-2.2,0-4.4,0-6.7,0c-3.1,0-6.3,0-9.4,0c-2,0-4.1,0-6.1,0c-1,0-1.6,0.3-1.6,1.5c0,0.6,0,1.2,0,1.9 c0,0.5,0.2,0.7,0.7,0.7c1.2,0,2.4,0,3.5,0c6.2,0,12.3,0,18.5,0C32,12.4,32.9,12.4,33.8,12.4z">
                        </path>
                        <path
                            d="M23.9,37.5c-3.7,0-7.4,0-11,0c-0.4,0-0.8,0-1.2-0.2c-0.8-0.2-1.3-0.8-1.3-1.7c-0.1-0.8-0.1-1.6-0.1-2.4c0-3,0-6.1,0-9.1 c0-0.7,0-1.5,0-2.2c0-0.9,0.4-1.6,1.2-1.9c0.4-0.2,0.8-0.2,1.2-0.2c4.6,0,9.1,0,13.7,0c2.9,0,5.8,0,8.6,0c0.5,0,1,0.1,1.4,0.3 c0.7,0.4,1,1,1,1.7c0,1.6,0,3.3,0,4.9c0,2.8,0,5.5,0,8.3c0,0.3,0,0.7-0.1,1c-0.2,0.9-0.8,1.4-1.7,1.5c-0.7,0.1-1.4,0.1-2.1,0.1 C30.3,37.5,27.1,37.5,23.9,37.5C23.9,37.5,23.9,37.5,23.9,37.5z M23.9,36.6C23.9,36.6,23.9,36.6,23.9,36.6c2.2,0,4.3,0,6.5,0 c1.6,0,3.2,0,4.9,0c0.8,0,1.2-0.3,1.3-1.1c0.1-0.5,0-0.9,0-1.4c0-3.6,0-7.3,0-10.9c0-0.5,0-1.1-0.1-1.6c-0.1-0.6-0.4-0.9-0.9-1 c-0.3,0-0.5-0.1-0.8-0.1c-3.1,0-6.3,0-9.4,0c-2.9,0-5.8,0-8.8,0c-1.4,0-2.8,0-4.2,0c-0.6,0-1,0.3-1.2,0.8c-0.1,0.2-0.1,0.5-0.1,0.7 c0,3.9,0,7.9,0,11.8c0,0.5,0,1.1,0.1,1.6c0,0.6,0.4,0.9,1,1c0.3,0,0.5,0.1,0.8,0.1C16.6,36.6,20.3,36.6,23.9,36.6z">
                        </path>
                        <path
                            d="M28.5,34.2c-1.9,0-3.8,0-5.7,0c-0.1,0-0.1,0-0.2,0c-0.3,0-0.4-0.2-0.4-0.4c0-0.2,0.2-0.4,0.4-0.4c1.1,0,2.3,0,3.4,0 c2.8,0,5.5,0,8.3,0c0.1,0,0.2,0,0.3,0.1c0.2,0.1,0.2,0.3,0.2,0.4c-0.1,0.2-0.2,0.3-0.5,0.3c-0.5,0-0.9,0-1.4,0 C31.5,34.2,30,34.2,28.5,34.2z">
                        </path>
                        <path
                            d="M16.7,33.3c0.9,0,1.8,0,2.7,0c0.3,0,0.5,0.2,0.5,0.4c0,0.3-0.2,0.4-0.5,0.4c-1.8,0-3.6,0-5.5,0c-0.3,0-0.4-0.1-0.5-0.3 c-0.1-0.2,0-0.3,0.1-0.4c0.1-0.1,0.2-0.1,0.3-0.1C14.9,33.3,15.8,33.3,16.7,33.3z">
                        </path>
                        <path
                            d="M15.8,30.9c-0.6,0-1.2,0-1.8,0c-0.4,0-0.5-0.2-0.5-0.4c0-0.3,0.2-0.4,0.5-0.4c1.2,0,2.4,0,3.6,0c0.3,0,0.5,0.2,0.5,0.4 c0,0.2-0.2,0.4-0.5,0.4C17,30.9,16.4,30.9,15.8,30.9C15.8,30.9,15.8,30.9,15.8,30.9z">
                        </path>
                        <path
                            d="M21.4,30.9c-0.6,0-1.2,0-1.9,0c-0.4,0-0.6-0.4-0.4-0.6c0.1-0.1,0.2-0.2,0.4-0.2c1.2,0,2.5,0,3.7,0c0.3,0,0.4,0.2,0.4,0.4 c0,0.2-0.2,0.4-0.4,0.4C22.6,30.9,22,30.9,21.4,30.9z">
                        </path>
                        <path
                            d="M26.9,30.9c-0.6,0-1.2,0-1.8,0c-0.3,0-0.5-0.2-0.5-0.4c0-0.3,0.2-0.4,0.5-0.4c1.2,0,2.4,0,3.6,0c0.3,0,0.5,0.2,0.5,0.4 c0,0.2-0.2,0.4-0.5,0.4C28.1,30.9,27.5,30.9,26.9,30.9z">
                        </path>
                        <path
                            d="M32.6,30.9c-0.6,0-1.2,0-1.8,0c-0.3,0-0.5-0.2-0.5-0.4c0-0.2,0.2-0.4,0.5-0.4c1.2,0,2.4,0,3.6,0c0.3,0,0.5,0.2,0.5,0.4 c0,0.2-0.2,0.4-0.5,0.4C33.8,30.9,33.2,30.9,32.6,30.9z">
                        </path>
                        <path
                            d="M16.6,26.5c0,0.3,0,0.6,0,1c-0.7,0.1-1.4,0.2-2.1,0.1c-0.5-0.1-0.7-0.4-0.6-0.9c0-0.1,0.1-0.1,0.1-0.1 C14.9,26.5,15.7,26.5,16.6,26.5C16.6,26.5,16.6,26.5,16.6,26.5z">
                        </path>
                        <path
                            d="M16.6,22.7c0,0.3,0,0.6,0,1c-0.9,0-1.8,0-2.7,0c-0.2-0.6,0.1-1,0.7-1.1C15.3,22.5,15.9,22.6,16.6,22.7z">
                        </path>
                        <path
                            d="M17.8,22.6c0.7,0,1.4,0,2.1,0c0.6,0.1,0.8,0.5,0.6,1c-0.1,0-0.2,0-0.3,0c-0.7,0-1.4,0-2.1,0c-0.2,0-0.3-0.1-0.2-0.3 C17.8,23.2,17.8,22.9,17.8,22.6z">
                        </path>
                        <path
                            d="M17.8,27.5c0-0.3,0-0.7-0.1-1c0.1,0,0.1,0,0.2,0c0.8,0,1.6,0,2.4,0c0.2,0,0.2,0.1,0.2,0.2c0,0.5-0.2,0.8-0.8,0.9 C19.1,27.7,18.5,27.6,17.8,27.5z">
                        </path>
                        <path
                            d="M15.9,24.6c0,0.3,0,0.6,0.1,0.9c-0.7,0-1.3,0-2,0c0-0.3,0-0.6,0-0.9C14.5,24.6,15.2,24.6,15.9,24.6z">
                        </path>
                        <path
                            d="M18.6,25.5c0-0.3,0-0.6,0-0.9c0.6,0,1.3,0,1.9,0c0,0.3,0,0.6,0,0.9C19.9,25.5,19.2,25.5,18.6,25.5z">
                        </path>
                    </g>
                </svg>