<svg version="1.1" id="envios_gratis" xmlns:x="&amp;ns_extend;" xmlns:i="&amp;ns_ai;"
                    xmlns:graph="&amp;ns_graphs;" xmlns="http://www.w3.org/2000/svg"
                    xmlns:xlink="http://www.w3.org/1999/xlink" x="0px" y="0px" viewBox="0 0 45 45" xml:space="preserve">
                    <g>
                        <path
                            d="M22.7,11.1c0,0,4.2,0,4.5,0c0.6,0.1,1.1,0.5,1.1,1.2c0,1.2,0,3.9,0,4c0.1,0,5.5,0,8.1,0c0.8,0,1.4,0.3,1.8,1 c1.6,2.7,3.3,5.5,4.9,8.2c0.2,0.3,0.2,0.5,0.2,0.8c0,1.9,0,6,0,6.1c-0.1,0.6-0.5,1-1.2,1.1c-0.1,0-4.3,0-4.3,0 c-0.2,0.5-0.3,0.9-0.4,1.3c-0.7,1.5-2.3,2.6-4,2.4c-1.2-0.1-2.2-0.5-3-1.5c-0.4-0.6-0.7-1.2-0.9-1.9c0-0.1-0.1-0.2-0.1-0.4 c-0.2,0-11.6,0-12.5,0c-0.5,0-0.6,0.1-0.7,0.5c-0.4,1.7-1.8,2.9-3.5,3.2c-2.2,0.3-4.2-1.1-4.7-3.3c-0.1-0.4-0.2-0.4-0.5-0.4 c-1.5,0-4.9,0-5.1,0c-0.7-0.1-1-0.6-1-1.3c0-2.1,0-19.9,0-20.1c0.1-0.6,0.4-0.9,1-1c0.2,0,3.1-0.1,4.3,0c0.2,0,0.2-0.1,0.2-0.2 c0-0.8,0-2.7,0-2.8c0.1-0.3,0.2-0.4,0.5-0.4c0.8,0,10.3,0,14.3,0c0.7,0,0.8,0.1,0.8,0.8C22.7,9.5,22.7,11.1,22.7,11.1z M7.1,12 c-1.4,0-2.9,0-4.3,0c-0.3,0-0.4,0.1-0.4,0.4c0,1,0,1.9,0,2.9c0,4,0,8.1,0,12.1c0,0.5,0,1,0,1.5c8.4,0,16.7,0,25.1,0 c0-0.1,0-0.1,0-0.2c0-5.4,0-10.7,0-16.1c0-0.5-0.1-0.6-0.6-0.6c-1.3,0-4,0-4.1,0c0,0.1,0,8.8,0,9.7c0,0.3-0.1,0.5-0.5,0.5 c-0.1,0-12.6,0-14.4,0c-0.5,0-0.7-0.1-0.7-0.7c0-0.2,0-0.4,0-0.7c-0.6,0-2,0-2.2,0c-0.2,0-0.3-0.1-0.3-0.3C4.5,20.2,4.7,20,5.1,20 c0.4,0,1.7,0,2,0c0-1,0-1.9,0-2.9c0-0.8,0-0.8-0.8-0.8c-0.4,0-0.9,0-1.3,0c-0.2,0-0.3-0.1-0.4-0.4c0-0.2,0.1-0.4,0.3-0.5 c0.1,0,1.5,0,2.2,0C7.1,14.3,7.1,13.1,7.1,12z M21.8,21.3c0-4.2,0-8.5,0-12.7c-0.1,0-3.3,0-4.9,0c-0.4,0-0.4,0-0.4,0.4 c0,0.8,0,1.7,0,2.5c0,0.4-0.2,0.6-0.5,0.6c-0.7,0-1.4,0-2.2,0c-0.4,0-0.5-0.1-0.5-0.5c0-0.9,0-2.9,0-3c-1.8,0-3.5,0-5.3,0 c0,4.2,0,8.5,0,12.7C12.6,21.3,17.2,21.3,21.8,21.3z M28.4,17.2c0,5.2,0,10.3,0,15.5c0.3,0,0.7,0,1,0c0.1,0,0.1-0.1,0.2-0.1 c0.1-0.3,0.2-0.6,0.3-0.8c0.4-0.9,0.9-1.7,1.8-2.2c2.3-1.3,5.3-0.1,6.1,2.4c0.1,0.3,0.1,0.5,0.2,0.8c1.4,0,2.7,0,4,0 c0.5,0,0.6-0.1,0.6-0.6c0-1.7,0-3.5,0-5.2c0-0.4-0.1-0.8-0.3-1.2c-1.6-2.6-3.1-5.2-4.7-7.8c-0.3-0.5-0.7-0.7-1.2-0.7 C34.8,17.2,29.4,17.2,28.4,17.2z M16.4,32.6c3.7,0,7.3,0,11,0c0-0.9,0-1.9,0-2.8c-4.2,0-8.3,0-12.6,0 C15.7,30.6,16.3,31.5,16.4,32.6z M30.4,33.1c0,1.8,1.5,3.3,3.3,3.3c1.8,0,3.3-1.5,3.3-3.3c0-1.8-1.5-3.2-3.2-3.3 C32,29.7,30.4,31.3,30.4,33.1z M15.5,33.1c0-1.8-1.5-3.3-3.3-3.3c-1.7,0-3.3,1.3-3.4,3.3c0,1.8,1.5,3.3,3.3,3.3 C14,36.4,15.5,34.9,15.5,33.1z M9.6,29.9c-2.4,0-4.8,0-7.2,0c0,0.1,0,1.6,0,2.2c0,0.4,0.2,0.6,0.6,0.6c1.6,0,3.2,0,4.8,0 c0.1,0,0.2,0,0.3,0C8.2,31.6,8.7,30.6,9.6,29.9z M14.3,11.2c0.4,0,0.9,0,1.3,0c0-0.9,0-1.8,0-2.6c-0.4,0-0.9,0-1.3,0 C14.3,9.5,14.3,10.3,14.3,11.2z">
                        </path>
                        <path
                            d="M5.2,25.4c-0.1,0-0.2,0-0.3-0.1c-0.2-0.1-0.3-0.2-0.3-0.5c0-0.2,0.3-0.4,0.5-0.4c2.7,0,14,0,16.9,0c0.1,0,0.2,0,0.3,0 c0.2,0.1,0.3,0.3,0.3,0.5c0,0.2-0.3,0.4-0.5,0.4C19.6,25.4,8,25.4,5.2,25.4z">
                        </path>
                        <path
                            d="M30,24.5c-0.2,0-0.3-0.1-0.3-0.3c0-0.1,0-3.6,0-5.2c0-0.5,0.1-0.7,0.7-0.7c1.1,0,4.7,0,5.4,0c0.4,0,0.8,0.2,1,0.5 c1,1.6,2,3.2,2.9,4.8c0,0.1,0.1,0.2,0.1,0.3c0.1,0.3,0,0.5-0.3,0.5C39.4,24.6,30.1,24.6,30,24.5z M38.6,23.6c0-0.1-0.1-0.1-0.1-0.2 c-0.8-1.3-1.6-2.6-2.4-3.9c-0.1-0.2-0.3-0.3-0.6-0.3c-1.6,0-4.8,0-4.9,0c0,1.5,0,2.9,0,4.4C33.3,23.6,35.9,23.6,38.6,23.6z">
                        </path>
                        <path
                            d="M31.7,26.6c-0.3,0-0.7,0-1,0c-0.3,0-0.4-0.2-0.4-0.4c0-0.3,0.2-0.4,0.5-0.4c0.7,0,1.3,0,2,0c0.3,0,0.4,0.2,0.4,0.4 c0,0.3-0.1,0.4-0.4,0.4C32.4,26.6,32,26.6,31.7,26.6C31.7,26.6,31.7,26.6,31.7,26.6z">
                        </path>
                        <path
                            d="M33.7,30.9c1.2,0,2.2,1,2.2,2.2c0,1.2-1,2.2-2.2,2.2c-1.2,0-2.2-1-2.2-2.2C31.5,31.9,32.5,30.9,33.7,30.9z M35,33.1 c0-0.7-0.6-1.3-1.3-1.3c-0.7,0-1.3,0.6-1.3,1.3c0,0.7,0.6,1.3,1.3,1.3C34.5,34.4,35.1,33.8,35,33.1z">
                        </path>
                        <path
                            d="M14.4,33.1c0,1.2-1,2.2-2.2,2.2c-1.2,0-2.2-1-2.2-2.2c0-1.2,1-2.2,2.2-2.2C13.4,30.9,14.4,31.9,14.4,33.1z M12.2,34.4 c0.7,0,1.3-0.6,1.3-1.3c0-0.7-0.6-1.3-1.3-1.3c-0.7,0-1.3,0.6-1.3,1.3C10.9,33.9,11.5,34.4,12.2,34.4z">
                        </path>
                    </g>
                </svg>