<svg version="1.1" id="envios_same_day" xmlns="http://www.w3.org/2000/svg"
                    xmlns:xlink="http://www.w3.org/1999/xlink" x="0px" y="0px" viewBox="0 0 45 45"
                    enable-background="new 0 0 45 45" xml:space="preserve">
                    <rect x="15.151" y="32.776" fill="#231F20" width="1.065" height="1.064"></rect>
                    <rect x="35.021" y="32.776" fill="#231F20" width="1.064" height="1.064"></rect>
                    <path fill="#231F20"
                        d="M19.764,14.859c0-4.989-4.059-9.048-9.048-9.048c-4.989,0-9.048,4.059-9.048,9.048 c0.005,4.983,4.064,9.041,9.048,9.047C15.705,23.906,19.764,19.848,19.764,14.859z M2.733,14.859 c0.005-4.397,3.586-7.978,7.982-7.983h0c4.402,0,7.983,3.581,7.983,7.983c0,4.401-3.581,7.982-7.983,7.982 C6.315,22.842,2.733,19.261,2.733,14.859z">
                    </path>
                    <polygon fill="#231F20"
                        points="10.781,14.723 6.987,12 6.451,12.748 10.913,15.951 15.316,11.077 14.632,10.46  ">
                    </polygon>
                    <path fill="#231F20"
                        d="M43.734,23.708l-8.809-8.81c-0.361-0.363-0.862-0.571-1.374-0.571H21.537v1.065h3.549v10.644h1.064V15.392 h7.396c0.237,0,0.46,0.092,0.627,0.26l1.514,1.514h-3.682c-0.685,0-1.242,0.557-1.242,1.242v6.386c0,0.685,0.558,1.242,1.242,1.242 h10.821v5.854c0,0.489-0.398,0.888-0.887,0.888h-1.583c-0.235-2.445-2.299-4.363-4.804-4.363c-2.506,0-4.569,1.918-4.804,4.363 H20.487c-0.235-2.445-2.299-4.363-4.804-4.363c-2.505,0-4.569,1.918-4.804,4.363H9.297c-0.489,0-0.886-0.398-0.886-0.888V25.68 H7.345v6.209c0,1.077,0.876,1.952,1.952,1.952h1.601c0.103,0.821,0.413,1.578,0.875,2.22c0.049,0.07,0.101,0.137,0.153,0.205 c0.018,0.021,0.034,0.042,0.051,0.063c0.114,0.139,0.232,0.275,0.361,0.401l0.311,0.304l0.071,0.009 c0.819,0.641,1.846,1.024,2.963,1.024c1.282,0,2.446-0.506,3.312-1.324l0.034-0.013c0.128-0.126,0.247-0.263,0.36-0.401 c0.018-0.021,0.034-0.043,0.051-0.063c0.053-0.068,0.105-0.135,0.154-0.205c0.463-0.642,0.772-1.398,0.875-2.22h10.297 c0.103,0.822,0.413,1.579,0.877,2.221c0.048,0.069,0.099,0.136,0.15,0.201c0.019,0.022,0.035,0.045,0.054,0.067 c0.112,0.14,0.23,0.274,0.36,0.4l0.07,0.047c0.823,0.765,1.914,1.242,3.114,1.283l0.159,0.037c1.273-0.002,2.448-0.52,3.316-1.357 c0.792-0.75,1.329-1.764,1.471-2.899h1.601c1.076,0,1.952-0.875,1.952-1.952v-7.806C43.892,23.944,43.835,23.806,43.734,23.708z M15.684,37.034c-2.052-0.003-3.723-1.674-3.726-3.726c0-2.054,1.671-3.726,3.726-3.726s3.725,1.672,3.725,3.726 S17.738,37.034,15.684,37.034z M35.553,37.034c-2.054,0-3.725-1.672-3.725-3.726s1.671-3.726,3.725-3.726s3.725,1.672,3.725,3.726 C39.275,35.36,37.604,37.031,35.553,37.034z M42.826,24.971H31.828v-6.741h4.924l6.074,6.074V24.971z">
                    </path>
                </svg>