<svg viewBox="0 0 60 60" fill="none" xmlns="http://www.w3.org/2000/svg">
                    <path
                        d="M52.9263 50.1463C53.8105 50.1463 54.6339 50.1444 55.4573 50.147C56.0225 50.149 56.4054 50.5126 56.4091 51.0442C56.4129 51.579 56.0388 51.9901 55.4924 51.9933C54.0737 52.0019 52.6544 51.9901 51.2357 51.9874C50.3171 51.9854 49.3991 51.9861 48.4805 51.9861C47.5104 51.9861 46.5404 51.9848 45.5704 51.9861C44.6418 51.9874 43.7131 51.9927 42.7845 51.994C41.8558 51.9953 40.9272 51.9947 39.9985 51.994C39.0492 51.994 38.0998 51.9933 37.1505 51.9933C36.2218 51.9933 35.2932 51.9947 34.3645 51.9953C33.4046 51.996 32.4452 51.998 31.4852 51.9966C30.5459 51.9953 29.6072 51.9894 28.6679 51.9874C27.7599 51.9854 26.852 51.9861 25.944 51.9861C24.9633 51.9861 23.9827 51.9848 23.0026 51.9868C22.074 51.9887 21.1453 51.996 20.2167 51.996C19.2774 51.9966 18.3387 51.9907 17.3994 51.9887C16.4807 51.9874 15.5627 51.9874 14.6441 51.9868C13.6741 51.9861 12.7041 51.9848 11.7341 51.9868C10.7948 51.9887 9.85609 51.9966 8.91678 51.9966C7.97748 51.9966 7.0388 51.9887 6.09949 51.9874C5.7655 51.9868 5.43151 51.9966 5.09752 51.9999C4.52353 52.0059 4.12062 51.606 4.12751 51.0395C4.13377 50.5198 4.5392 50.1463 5.08937 50.1477C5.91213 50.1503 6.73488 50.1483 7.59148 50.1483C7.59837 50.0113 7.61027 49.8842 7.61027 49.7577C7.60652 48.1235 7.59586 46.4892 7.59649 44.8556C7.59712 42.5634 7.61027 40.2717 7.61027 37.9794C7.61027 35.6213 7.60025 33.2638 7.59649 30.9056C7.59586 30.5657 7.59336 30.2245 7.61591 29.8859C7.63095 29.6594 7.54197 29.5665 7.35273 29.4782C6.17907 28.9302 5.21219 28.1101 4.57429 26.9284C3.75279 25.4074 3.85931 23.8733 4.59747 22.3431C5.6289 20.2063 6.64402 18.0602 7.66479 15.9175C8.09779 15.0085 8.52765 14.0975 8.96691 13.17C8.47 12.8288 8.05894 12.4132 7.82145 11.823C7.18355 10.2381 8.06959 8.4221 9.67688 8.08484C10.0503 8.00645 10.4432 8.00975 10.8274 8.00909C13.1665 8.0025 37.2884 8.0058 43.8673 8.00514C46.0185 8.00514 48.1697 7.98999 50.3209 8.01172C52.0723 8.02951 53.2986 9.75465 52.833 11.4989C52.6669 12.1207 52.3517 12.5443 51.5766 13.1806C52.0898 14.2622 52.6049 15.3464 53.1193 16.4313C54.1176 18.5358 55.1465 20.6259 56.1052 22.7509C56.9505 24.6222 56.5363 26.6346 55.1208 28.0857C54.538 28.6832 53.8882 29.166 53.1419 29.498C52.9589 29.5796 52.922 29.6857 52.9232 29.8675C52.9314 30.8984 52.9351 31.9286 52.9351 32.9595C52.9345 34.5054 52.9257 36.0508 52.927 37.5967C52.9289 40.0194 52.9389 42.4421 52.9395 44.8655C52.9401 46.4991 52.9307 48.1327 52.9257 49.7663C52.9257 49.8842 52.9263 50.0021 52.9263 50.1463ZM31.1462 25.0893C31.3856 25.2309 31.6181 25.3383 31.8173 25.4931C32.657 26.1425 33.5105 26.7769 34.3163 27.4711C36.168 29.0665 38.5059 28.8887 40.0963 27.5199C40.8538 26.8678 41.6716 26.294 42.4342 25.6485C43.5358 24.7171 44.8486 24.8423 45.608 25.383C45.9357 25.6162 46.2447 25.8784 46.5655 26.1228C47.2567 26.6497 47.9115 27.2459 48.6503 27.6846C50.4612 28.7609 52.739 28.2392 54.1476 26.4732C54.8557 25.5853 55.0011 24.5689 54.5142 23.5275C52.9727 20.2307 51.403 16.9484 49.8358 13.6641C49.7995 13.5876 49.666 13.5198 49.5777 13.5198C47.6145 13.5119 45.6513 13.5145 43.6881 13.5152C43.5872 13.5152 43.4869 13.5152 43.3766 13.5152C43.3823 13.6054 43.3791 13.6502 43.3879 13.6917C43.7532 15.4221 44.1192 17.1526 44.4864 18.883C44.67 19.7478 44.8592 20.6114 45.0397 21.4769C45.1637 22.0704 44.8962 22.5809 44.4131 22.6929C43.8992 22.8115 43.4788 22.5104 43.349 21.9064C42.7513 19.1227 42.1591 16.3384 41.5607 13.5336C34.0349 13.5336 26.5017 13.5336 18.9691 13.5336C18.7215 14.7028 18.479 15.8536 18.2347 17.0043C17.8831 18.6597 17.5341 20.315 17.1769 21.969C17.0629 22.4966 16.7076 22.7594 16.2219 22.7034C15.6423 22.6369 15.3541 22.1291 15.5032 21.4256C15.9262 19.4284 16.3517 17.4318 16.7759 15.4347C16.9087 14.8095 17.0403 14.1838 17.1769 13.5356C17.0673 13.527 16.9958 13.5165 16.9244 13.5165C14.9298 13.5152 12.9353 13.5119 10.9408 13.5244C10.8462 13.5251 10.7127 13.6436 10.6644 13.7431C9.86173 15.4057 9.0678 17.0722 8.27512 18.7407C7.50626 20.3585 6.7211 21.9683 5.98356 23.6019C5.5913 24.4714 5.66524 25.3672 6.17782 26.1695C7.54887 28.3163 10.2809 28.8676 12.3306 27.4033C13.1396 26.8256 13.9066 26.1821 14.6886 25.5635C15.6743 24.7836 16.8523 24.7355 17.853 25.4865C18.7266 26.1412 19.5794 26.8269 20.4322 27.512C21.911 28.699 23.5121 29.002 25.2039 28.1318C25.8882 27.7801 26.4816 27.2314 27.1101 26.7617C27.7637 26.273 28.3909 25.7427 29.0677 25.2928C29.3183 25.1268 29.3986 24.9911 29.3973 24.6954C29.3854 22.2364 29.3898 19.7781 29.3917 17.3192C29.3923 16.7191 29.7651 16.3008 30.2802 16.3088C30.7859 16.3167 31.1424 16.7244 31.1443 17.31C31.1475 18.4186 31.1456 19.5272 31.1456 20.6358C31.1462 22.1271 31.1462 23.619 31.1462 25.0893ZM26.8018 42.8249C26.8018 45.2733 26.8018 47.7032 26.8018 50.1292C34.946 50.1292 43.0614 50.1292 51.1706 50.1292C51.1706 47.6795 51.1706 45.2574 51.1706 42.8156C51.0515 42.8097 50.9494 42.7998 50.8478 42.7998C50.1485 42.7985 49.4473 42.7715 48.7493 42.8071C48.0387 42.8433 47.6771 42.2933 47.684 41.8697C47.6934 41.3276 48.1296 40.9541 48.7687 40.9535C49.4686 40.9528 50.168 40.9541 50.8679 40.9522C50.9669 40.9522 51.0659 40.9403 51.1737 40.9331C51.1737 37.2819 51.1737 33.6643 51.1737 30.0526C51.138 30.0401 51.1179 30.0256 51.0997 30.0269C49.8214 30.1448 48.6189 29.8589 47.5506 29.1317C46.6156 28.4954 45.7409 27.7616 44.8435 27.066C44.3542 26.6866 44.0659 26.686 43.5753 27.0693C42.5796 27.8473 41.5983 28.6496 40.5781 29.3913C38.5585 30.8595 35.6472 30.7857 33.6765 29.2483C32.7378 28.5165 31.8092 27.7715 30.8724 27.0371C30.4657 26.7182 30.1217 26.711 29.7244 27.0041C29.5026 27.1675 29.2889 27.3427 29.069 27.5093C28.1403 28.2148 27.263 29.0171 26.2705 29.6027C24.1205 30.87 21.9461 30.7535 19.8852 29.3353C18.8663 28.6344 17.9201 27.817 16.9407 27.0522C16.497 26.7057 16.1618 26.6932 15.7413 27.0199C15.339 27.3328 14.9549 27.672 14.5426 27.9691C13.8051 28.5 13.0888 29.0823 12.2974 29.5059C11.3988 29.9874 10.3981 30.1336 9.37108 30.0243C9.37108 33.6801 9.37108 37.3161 9.37108 40.9719C11.1206 40.9719 12.8463 40.9719 14.5921 40.9719C14.5921 40.8178 14.5921 40.6874 14.5921 40.5569C14.5896 38.2851 14.5852 36.0125 14.5858 33.7407C14.5858 32.586 15.3503 31.8159 16.4482 31.8199C19.2479 31.8304 22.0483 31.8634 24.8474 31.8127C25.798 31.7955 26.8206 32.5425 26.7906 33.8322C26.7417 35.9421 26.7768 38.0545 26.7761 40.1657C26.7761 40.4351 26.7761 40.7045 26.7761 40.9956C27.7386 40.9956 28.656 40.9923 29.5728 40.997C30.039 40.9996 30.383 41.3579 30.3999 41.8408C30.4206 42.431 30.0885 42.811 29.5038 42.8189C28.609 42.8347 27.7136 42.8249 26.8018 42.8249ZM16.3498 50.0792C19.2429 50.0792 22.1185 50.0792 25.0448 50.0792C25.0448 48.8144 25.0467 47.5675 25.0442 46.3199C25.0423 45.3437 25.0323 44.3675 25.0329 43.392C25.0335 42.4053 25.046 41.4179 25.046 40.4311C25.046 39.4549 25.0335 38.4794 25.031 37.5032C25.0279 36.3076 25.026 35.1128 25.0323 33.9179C25.0335 33.7163 24.9646 33.6485 24.7772 33.6498C23.9112 33.6564 23.0452 33.6518 22.1786 33.655C21.25 33.6583 20.3219 33.6702 19.3933 33.6695C18.4646 33.6695 17.5366 33.6577 16.6079 33.6544C16.5271 33.6544 16.4463 33.6781 16.3491 33.6939C16.3498 39.1572 16.3498 44.608 16.3498 50.0792ZM30.2652 9.85543C30.2652 9.85478 30.2652 9.85346 30.2652 9.8528C25.1494 9.8528 20.0337 9.8528 14.9179 9.8528C13.3727 9.8528 11.8274 9.85412 10.2822 9.85675C9.85546 9.85741 9.54528 10.0656 9.41495 10.4246C9.19312 11.0371 9.62863 11.6774 10.291 11.682C11.3449 11.6899 12.3995 11.6774 13.4542 11.6774C17.5253 11.6787 21.5965 11.684 25.6676 11.684C29.7388 11.684 33.81 11.6774 37.8811 11.6774C41.9417 11.6774 46.0022 11.6827 50.0633 11.6827C50.2081 11.6827 50.3559 11.6682 50.4963 11.6333C50.9299 11.5266 51.2263 11.1024 51.1843 10.6689C51.1386 10.1933 50.762 9.85478 50.2795 9.85478C43.6078 9.85543 36.9362 9.85543 30.2652 9.85543ZM9.3667 42.8466C9.3667 45.2937 9.3667 47.7118 9.3667 50.1266C11.1112 50.1266 12.8357 50.1266 14.5758 50.1266C14.5758 47.6861 14.5758 45.2766 14.5758 42.8466C12.8432 42.8466 11.125 42.8466 9.3667 42.8466Z"
                        fill="black" fill-opacity="0.8"></path>
                    <path
                        d="M38.9553 31.8271C40.6516 31.8271 42.3485 31.8271 44.0447 31.8271C45.2341 31.8271 45.9528 32.5814 45.9516 33.8303C45.9497 36.1568 45.9478 38.4833 45.944 40.8099C45.9422 42.0351 45.246 42.7754 44.0736 42.7781C40.6823 42.786 37.291 42.7886 33.8997 42.7879C32.7411 42.7873 32.0105 42.0074 32.0117 40.7901C32.0136 38.4201 32.0161 36.0494 32.0192 33.6794C32.0205 32.6275 32.7092 31.8555 33.713 31.8443C35.46 31.8245 37.2077 31.839 38.9553 31.839C38.9553 31.8344 38.9553 31.8311 38.9553 31.8271ZM33.7788 40.9271C37.2678 40.9271 40.7186 40.9271 44.1795 40.9271C44.1795 38.5051 44.1795 36.0995 44.1795 33.6755C40.6967 33.6755 37.2396 33.6755 33.7788 33.6755C33.7788 36.0995 33.7788 38.4991 33.7788 40.9271Z"
                        fill="black" fill-opacity="0.8"></path>
                    <path
                        d="M31.1485 46.485C31.1485 46.7801 31.1517 47.0758 31.1479 47.3709C31.1404 47.9124 30.7588 48.3234 30.2688 48.3241C29.7831 48.3247 29.3934 47.9078 29.389 47.3709C29.384 46.7801 29.3827 46.1892 29.389 45.5984C29.3953 45.0642 29.7875 44.6432 30.2669 44.6426C30.74 44.6419 31.1379 45.0701 31.1479 45.5984C31.1529 45.8941 31.1485 46.1892 31.1485 46.485Z"
                        fill="black" fill-opacity="0.8"></path>
                    <path
                        d="M42.468 46.5004C42.468 46.1941 42.4649 45.8878 42.4686 45.5815C42.4755 45.0638 42.8496 44.6554 43.324 44.6429C43.7839 44.6303 44.2 45.044 44.2113 45.5558C44.2251 46.1684 44.2245 46.7817 44.2119 47.3943C44.2006 47.941 43.8115 48.3329 43.3171 48.325C42.8214 48.3171 42.4649 47.9087 42.4674 47.3541C42.4693 47.0695 42.468 46.785 42.468 46.5004Z"
                        fill="black" fill-opacity="0.8"></path>
                    <path
                        d="M48.5658 46.4988C48.5658 46.8058 48.5765 47.1134 48.5633 47.4203C48.5414 47.9295 48.2024 48.2911 47.7374 48.3208C47.3001 48.3484 46.8771 48.027 46.8464 47.5356C46.8019 46.8275 46.8044 46.1115 46.8508 45.4034C46.8821 44.9245 47.322 44.6083 47.7613 44.6479C48.2074 44.6887 48.5508 45.0661 48.564 45.545C48.5734 45.8625 48.5658 46.1806 48.5658 46.4988Z"
                        fill="black" fill-opacity="0.8"></path>
                    <path
                        d="M33.7662 46.4576C33.7662 46.1296 33.7525 45.8002 33.7694 45.4735C33.7944 44.9992 34.1673 44.6482 34.6222 44.6455C35.0558 44.6429 35.4644 45.0203 35.4763 45.4742C35.4938 46.1302 35.4982 46.7876 35.4807 47.443C35.4669 47.9654 35.0834 48.3296 34.6078 48.3191C34.1554 48.3092 33.8007 47.9403 33.7637 47.4417C33.755 47.3218 33.7412 47.2019 33.7387 47.0814C33.7343 46.8733 33.7374 46.6651 33.7374 46.457C33.7481 46.4576 33.7575 46.4576 33.7662 46.4576Z"
                        fill="black" fill-opacity="0.8"></path>
                    <path
                        d="M39.8551 46.4796C39.8551 46.7866 39.8633 47.0942 39.8533 47.4011C39.8376 47.8984 39.4804 48.2956 39.038 48.322C38.5611 48.351 38.1463 48.0117 38.1181 47.4914C38.0824 46.8248 38.0849 46.1529 38.1144 45.4856C38.1357 44.9942 38.5825 44.6201 39.0361 44.6458C39.4923 44.6721 39.8376 45.0509 39.8533 45.5581C39.8633 45.865 39.8551 46.1726 39.8551 46.4796Z"
                        fill="black" fill-opacity="0.8"></path>
                    <path
                        d="M21.5591 41.912C21.5591 41.5945 21.5528 41.277 21.5603 40.9595C21.5716 40.5024 21.8862 40.1381 22.3029 40.0867C22.7572 40.0308 23.1382 40.2857 23.2535 40.7422C23.293 40.8976 23.2999 41.0656 23.3011 41.2276C23.3061 41.7625 23.3143 42.298 23.2967 42.8329C23.2792 43.3704 22.9013 43.736 22.4094 43.7274C21.9125 43.7189 21.5672 43.3447 21.5591 42.7986C21.5553 42.5035 21.5585 42.2078 21.5591 41.912Z"
                        fill="black" fill-opacity="0.8"></path>
                    <path
                        d="M11.0935 46.4722C11.0935 46.187 11.0904 45.9017 11.0941 45.6165C11.101 45.0678 11.4444 44.6667 11.9194 44.6463C12.3931 44.6265 12.8142 44.998 12.8374 45.5223C12.8656 46.1679 12.8662 46.8167 12.8349 47.4622C12.8098 47.9846 12.4101 48.3343 11.9376 48.3198C11.4814 48.3054 11.1136 47.9075 11.0954 47.3924C11.0841 47.0868 11.0935 46.7798 11.0935 46.4722Z"
                        fill="black" fill-opacity="0.8"></path>
                </svg>